<svg xmlns="http://www.w3.org/2000/svg" xmlns:xlink="http://www.w3.org/1999/xlink" width="189" height="24" viewBox="0 0 189 24">
  <defs>
    <polygon id="sov-mom-logo-white-a" points=".029 23.502 71.081 23.502 71.081 .16 .029 .16"/>
  </defs>
  <g fill="none" fill-rule="evenodd">
    <path fill="#FFF" fill-rule="nonzero" d="M75.65568,18.24912 L76.4976,21.15072 L77.0256,23.22192 L78.22656,23.22192 L79.93056,17.32416 L83.9424,4.22544 C84.3744,2.82192 84.42336,1.64352 85.95888,1.77072 L85.95888,0.81456 C85.0944,0.91008 84.2544,0.97392 83.36592,0.97392 C82.47696,0.97392 81.63696,0.91008 80.77248,0.81456 L80.77248,1.77072 C83.6544,1.64352 82.90992,3.04608 82.42944,4.83072 L81.396,8.688 L78.25056,19.07712 L74.50368,6.48768 L73.5912,2.95008 C73.42368,2.31264 73.2792,1.7064 75.58464,1.77072 L75.58464,0.81456 C74.5272,0.91008 73.4712,0.97392 72.39024,0.97392 C71.30976,0.97392 70.25184,0.91008 69.19632,0.81456 L69.19632,1.77072 L69.65184,1.80288 C70.97376,2.05776 70.78176,2.18544 71.30976,3.90576 L75.65568,18.24912"/>
    <path fill="#FFF" fill-rule="nonzero" d="M75.65568 18.24912L76.4976 21.15072 77.0256 23.22192 78.22656 23.22192 79.93056 17.32416 83.9424 4.22544C84.3744 2.82192 84.42336 1.64352 85.95888 1.77072L85.95888.81456C85.0944.91008 84.2544.97392 83.36592.97392 82.47696.97392 81.63696.91008 80.77248.81456L80.77248 1.77072C83.6544 1.64352 82.90992 3.04608 82.42944 4.83072L81.396 8.688 78.25056 19.07712 74.50368 6.48768 73.5912 2.95008C73.42368 2.31264 73.2792 1.7064 75.58464 1.77072L75.58464.81456C74.5272.91008 73.4712.97392 72.39024.97392 71.30976.97392 70.25184.91008 69.19632.81456L69.19632 1.77072 69.65184 1.80288C70.97376 2.05776 70.78176 2.18544 71.30976 3.90576L75.65568 18.24912M90.8544 12.57552C96.28272 12.3216 96.44976 12.13008 96.44976 15.732L97.24272 15.732 97.24272 8.36832 96.44976 8.36832C96.4272 11.49168 96.08976 11.11008 90.8544 11.04672L90.8544 5.08608C90.8544 3.97008 90.87792 3.23712 90.9744 2.44032 91.76784 2.28096 92.8944 2.28096 93.9528 2.28096 95.1528 2.28096 96.37824 2.3448 97.5312 2.82192 97.69824 3.81072 97.84272 4.70256 97.86816 5.94576L98.6112 5.94576C98.6112 5.27712 98.68464 4.73424 98.68464 4.06512 98.70816 3.04608 98.80272 2.02512 99.06816.97392 98.2512.81456 96.59376.84672 95.0808.81456 93.63984.91008 92.1744.97392 90.68592.97392 89.19696.97392 87.756.91008 86.29056.81456L86.29056 1.77072C88.59696 1.93008 88.57248 2.15328 88.57248 4.63968L88.57248 19.27008C88.57248 21.40608 87.70848 22.0752 86.50752 22.13808L86.50752 23.09424C87.97248 22.99776 89.38944 22.93488 90.8544 22.93488 92.31888 22.93488 93.75984 22.99776 95.17632 23.09424 96.66624 23.06256 98.27568 23.09424 99.16464 22.93488L99.16464 20.28912C99.16464 19.27008 99.30816 18.3768 99.40464 17.70768L98.6112 17.70768 98.39472 19.46064C98.34816 20.0352 98.2272 20.60928 98.10816 21.08544 96.85824 21.56544 95.53632 21.62832 94.2408 21.62832 93.08784 21.62832 91.86336 21.62832 90.9744 21.46848 90.87792 20.64096 90.8544 19.87584 90.8544 18.72864L90.8544 12.57552"/>
    <path fill="#FFF" fill-rule="nonzero" d="M96.44976 15.732L97.24272 15.732 97.24272 8.36832 96.44976 8.36832C96.4272 11.49168 96.08976 11.11008 90.8544 11.04672L90.8544 5.08608C90.8544 3.97008 90.87792 3.23712 90.9744 2.44032 91.76784 2.28096 92.8944 2.28096 93.9528 2.28096 95.1528 2.28096 96.37824 2.3448 97.5312 2.82192 97.69824 3.81072 97.84272 4.70256 97.86816 5.94576L98.6112 5.94576C98.6112 5.27712 98.68464 4.73424 98.68464 4.06512 98.70816 3.04608 98.80272 2.02512 99.06816.97392 98.2512.81456 96.59376.84672 95.0808.81456 93.63984.91008 92.1744.97392 90.68592.97392 89.19696.97392 87.756.91008 86.29056.81456L86.29056 1.77072C88.59696 1.93008 88.57248 2.15328 88.57248 4.63968L88.57248 19.27008C88.57248 21.40608 87.70848 22.0752 86.50752 22.13808L86.50752 23.09424C87.97248 22.99776 89.38944 22.93488 90.8544 22.93488 92.31888 22.93488 93.75984 22.99776 95.17632 23.09424 96.66624 23.06256 98.27568 23.09424 99.16464 22.93488L99.16464 20.28912C99.16464 19.27008 99.30816 18.3768 99.40464 17.70768L98.6112 17.70768 98.39472 19.46064C98.34816 20.0352 98.2272 20.60928 98.10816 21.08544 96.85824 21.56544 95.53632 21.62832 94.2408 21.62832 93.08784 21.62832 91.86336 21.62832 90.9744 21.46848 90.87792 20.64096 90.8544 19.87584 90.8544 18.72864L90.8544 12.57552C96.28272 12.3216 96.44976 12.13008 96.44976 15.732zM102.56784 19.27008C102.56784 21.75648 102.59184 21.97872 100.28592 22.13808L100.28592 23.09424C101.36784 22.99776 102.49632 22.93488 103.67184 22.93488 104.84976 22.93488 105.97824 22.99776 107.1312 23.09424L107.1312 22.13808C104.82624 21.97872 104.84976 21.75648 104.84976 19.27008L104.84976 4.63968C104.84976 3.6504 104.84976 2.98224 104.9928 2.44032 105.64272 2.18544 106.55472 2.02512 107.39472 2.02512 109.17312 2.02512 111.09312 3.04608 111.09312 6.48768 111.09312 8.84736 109.65312 10.56816 107.9712 10.95072 107.2512 11.11008 106.5072 11.14224 105.76272 11.0784L105.6672 11.55648 111.38208 21.31008C111.71856 21.852 111.98304 22.42512 112.36656 23.09424 112.91856 22.99776 113.44656 22.93488 113.99952 22.93488 114.55152 22.93488 115.10496 22.99776 115.63248 23.09424L115.63248 22.13808C115.15248 22.0416 114.64848 21.852 114.264 21.2448L108.8112 11.81136C111.14208 11.20608 113.49504 9.13392 113.49504 5.65872 113.49504 2.98224 111.95856.59136 108.64464.81456 107.2512.91008 105.85824.97392 104.4408.97392 103.02432.97392 101.63088.91008 100.28592.81456L100.28592 1.77072C102.59184 1.93008 102.56784 2.15328 102.56784 4.63968L102.56784 19.27008"/>
    <path fill="#FFF" fill-rule="nonzero" d="M102.56784,19.27008 C102.56784,21.75648 102.59184,21.97872 100.28592,22.13808 L100.28592,23.09424 C101.36784,22.99776 102.49632,22.93488 103.67184,22.93488 C104.84976,22.93488 105.97824,22.99776 107.1312,23.09424 L107.1312,22.13808 C104.82624,21.97872 104.84976,21.75648 104.84976,19.27008 L104.84976,4.63968 C104.84976,3.6504 104.84976,2.98224 104.9928,2.44032 C105.64272,2.18544 106.55472,2.02512 107.39472,2.02512 C109.17312,2.02512 111.09312,3.04608 111.09312,6.48768 C111.09312,8.84736 109.65312,10.56816 107.9712,10.95072 C107.2512,11.11008 106.5072,11.14224 105.76272,11.0784 L105.6672,11.55648 L111.38208,21.31008 C111.71856,21.852 111.98304,22.42512 112.36656,23.09424 C112.91856,22.99776 113.44656,22.93488 113.99952,22.93488 C114.55152,22.93488 115.10496,22.99776 115.63248,23.09424 L115.63248,22.13808 C115.15248,22.0416 114.64848,21.852 114.264,21.2448 L108.8112,11.81136 C111.14208,11.20608 113.49504,9.13392 113.49504,5.65872 C113.49504,2.98224 111.95856,0.59136 108.64464,0.81456 C107.2512,0.91008 105.85824,0.97392 104.4408,0.97392 C103.02432,0.97392 101.63088,0.91008 100.28592,0.81456 L100.28592,1.77072 C102.59184,1.93008 102.56784,2.15328 102.56784,4.63968 L102.56784,19.27008"/>
    <path fill="#FFF" fill-rule="nonzero" d="M132.60912,4.63968 L132.60912,19.27008 C132.60912,21.75648 132.63312,21.97872 130.3272,22.13808 L130.3272,23.09424 C131.4072,22.99776 132.5376,22.93488 133.71312,22.93488 C134.89056,22.93488 136.01952,22.99776 137.17248,23.09424 L137.17248,22.13808 C134.86656,21.97872 134.89056,21.75648 134.89056,19.27008 L134.89056,3.9384 C134.89056,2.08944 135.324,1.80288 136.764,1.77072 L137.124,1.77072 L137.124,0.81456 C136.37952,0.91008 135.61056,0.97392 134.844,0.97392 C134.07408,0.97392 133.3056,0.91008 132.56208,0.81456 C132.24912,2.21712 131.79216,3.58704 131.26464,5.05392 L126.31632,18.5688 L119.97696,0.81456 C119.23152,0.91008 118.464,0.97392 117.69504,0.97392 C116.92656,0.97392 116.1576,0.91008 115.41312,0.81456 L115.41312,1.77072 L115.7976,1.80288 C117.26208,1.80288 117.69504,2.08944 117.69504,3.9384 L117.69504,19.97136 C117.69504,21.82032 117.26208,22.1064 115.7976,22.1064 L115.41312,22.13808 L115.41312,23.09424 C116.37312,22.99776 117.33312,22.93488 118.29504,22.93488 C119.25504,22.93488 120.21696,22.99776 121.15248,23.09424 L121.15248,22.13808 L120.76992,22.1064 C119.25504,22.1064 118.79952,21.82032 118.79952,19.97136 L118.79952,4.63968 L125.49888,23.35008 L125.9808,23.35008 L132.60912,4.63968"/>
    <g fill="#FFF" fill-rule="nonzero" transform="translate(115.2)">
      <path d="M17.40912 4.63968L17.40912 19.27008C17.40912 21.75648 17.43312 21.97872 15.1272 22.13808L15.1272 23.09424C16.2072 22.99776 17.3376 22.93488 18.51312 22.93488 19.69056 22.93488 20.81952 22.99776 21.97248 23.09424L21.97248 22.13808C19.66656 21.97872 19.69056 21.75648 19.69056 19.27008L19.69056 3.9384C19.69056 2.08944 20.124 1.80288 21.564 1.77072L21.924 1.77072 21.924.81456C21.17952.91008 20.41056.97392 19.644.97392 18.87408.97392 18.1056.91008 17.36208.81456 17.04912 2.21712 16.59216 3.58704 16.06464 5.05392L11.11632 18.5688 4.77696.81456C4.03152.91008 3.264.97392 2.49504.97392 1.72656.97392.9576.91008.21312.81456L.21312 1.77072.5976 1.80288C2.06208 1.80288 2.49504 2.08944 2.49504 3.9384L2.49504 19.97136C2.49504 21.82032 2.06208 22.1064.5976 22.1064L.21312 22.13808.21312 23.09424C1.17312 22.99776 2.13312 22.93488 3.09504 22.93488 4.05504 22.93488 5.01696 22.99776 5.95248 23.09424L5.95248 22.13808 5.56992 22.1064C4.05504 22.1064 3.59952 21.82032 3.59952 19.97136L3.59952 4.63968 10.29888 23.35008 10.7808 23.35008 17.40912 4.63968M31.35312.33648C25.78176.24096 22.32528 5.34 22.32528 11.84352 22.32528 19.11072 25.97376 23.57328 30.84912 23.57328 36.10944 23.57328 40.14432 18.08976 40.14432 11.23776 40.14432 4.1616 36.49248.33648 31.35312.33648zM31.6176 22.20288C26.86368 22.20288 24.89376 16.36848 24.89376 10.79136 24.89376 5.56416 26.79024 1.7064 30.96912 1.7064 35.43696 1.7064 37.5744 5.91456 37.5744 12.22512 37.5744 18.08976 35.62944 21.852 31.6176 22.20288L31.6176 22.20288z"/>
      <path d="M31.35312,0.33648 C25.78176,0.24096 22.32528,5.34 22.32528,11.84352 C22.32528,19.11072 25.97376,23.57328 30.84912,23.57328 C36.10944,23.57328 40.14432,18.08976 40.14432,11.23776 C40.14432,4.1616 36.49248,0.33648 31.35312,0.33648 Z M31.6176,22.20288 C26.86368,22.20288 24.89376,16.36848 24.89376,10.79136 C24.89376,5.56416 26.79024,1.7064 30.96912,1.7064 C35.43696,1.7064 37.5744,5.91456 37.5744,12.22512 C37.5744,18.08976 35.62944,21.852 31.6176,22.20288 L31.6176,22.20288 Z"/>
    </g>
    <path fill="#FFF" fill-rule="nonzero" d="M159.82944,0.81456 C159.13248,0.91008 158.46048,0.97392 157.764,0.97392 C157.044,0.97392 156.37056,0.91008 155.67408,0.81456 L155.67408,1.77072 L156.01056,1.77072 C157.35504,1.80288 157.73952,2.08944 157.73952,3.9384 L157.73952,19.97136 C157.73952,21.82032 157.30752,22.1064 155.84208,22.1064 L155.4576,22.13808 L155.4576,23.09424 C156.41952,22.99776 157.37952,22.93488 158.34048,22.93488 C159.30144,22.93488 160.26144,22.99776 161.19792,23.09424 L161.19792,22.13808 L160.8144,22.1064 C159.30144,22.1064 158.844,21.82032 158.844,19.97136 L158.844,4.41552 L170.44464,23.12544 L172.34208,23.57328 L172.27008,22.39392 L172.27008,3.9384 C172.27008,2.08944 172.72656,1.80288 174.23856,1.80288 L174.624,1.77072 L174.624,0.81456 C173.68656,0.91008 172.72656,0.97392 171.76656,0.97392 C170.80464,0.97392 169.84464,0.91008 168.88272,0.81456 L168.88272,1.77072 L169.2672,1.80288 C170.73312,1.80288 171.16464,2.08944 171.16464,3.9384 L171.16464,19.78032 L159.82944,0.81456"/>
    <path fill="#FFF" fill-rule="nonzero" d="M159.82944.81456C159.13248.91008 158.46048.97392 157.764.97392 157.044.97392 156.37056.91008 155.67408.81456L155.67408 1.77072 156.01056 1.77072C157.35504 1.80288 157.73952 2.08944 157.73952 3.9384L157.73952 19.97136C157.73952 21.82032 157.30752 22.1064 155.84208 22.1064L155.4576 22.13808 155.4576 23.09424C156.41952 22.99776 157.37952 22.93488 158.34048 22.93488 159.30144 22.93488 160.26144 22.99776 161.19792 23.09424L161.19792 22.13808 160.8144 22.1064C159.30144 22.1064 158.844 21.82032 158.844 19.97136L158.844 4.41552 170.44464 23.12544 172.34208 23.57328 172.27008 22.39392 172.27008 3.9384C172.27008 2.08944 172.72656 1.80288 174.23856 1.80288L174.624 1.77072 174.624.81456C173.68656.91008 172.72656.97392 171.76656.97392 170.80464.97392 169.84464.91008 168.88272.81456L168.88272 1.77072 169.2672 1.80288C170.73312 1.80288 171.16464 2.08944 171.16464 3.9384L171.16464 19.78032 159.82944.81456M180.86016 19.27008C180.86016 21.75648 180.88272 21.97872 178.57824 22.13808L178.57824 23.09424C179.65824 22.99776 180.7872 22.93488 181.96464 22.93488 183.14112 22.93488 184.27008 22.99776 185.42208 23.09424L185.42208 22.13808C183.11664 21.97872 183.14112 21.75648 183.14112 19.27008L183.14112 5.62704C183.16464 4.41552 183.16464 3.39648 183.23664 2.44032L186.984 2.59968C187.48848 2.63136 187.77504 2.72736 187.82496 3.55584 187.92048 4.32096 188.06496 5.14944 188.08848 6.01008L188.80848 6.01008C188.80848 5.40288 188.80848 4.83072 188.83248 4.22544 188.85696 3.10896 188.88048 1.99392 188.95344.81456 186.62304.91008 184.34208.97392 182.0112.97392 179.65824.97392 177.37632.91008 175.09632.81456 175.16784 1.99392 175.19184 3.10896 175.21632 4.22544 175.23888 4.83072 175.23888 5.40288 175.23888 6.01008L175.95984 6.01008C175.98432 5.14944 176.12784 4.32096 176.22432 3.55584 176.27184 2.72736 176.5608 2.63136 177.06528 2.59968L180.76464 2.44032C180.83568 3.39648 180.83568 4.41552 180.86016 5.62704L180.86016 19.27008"/>
    <path fill="#FFF" fill-rule="nonzero" d="M180.86016,19.27008 C180.86016,21.75648 180.88272,21.97872 178.57824,22.13808 L178.57824,23.09424 C179.65824,22.99776 180.7872,22.93488 181.96464,22.93488 C183.14112,22.93488 184.27008,22.99776 185.42208,23.09424 L185.42208,22.13808 C183.11664,21.97872 183.14112,21.75648 183.14112,19.27008 L183.14112,5.62704 C183.16464,4.41552 183.16464,3.39648 183.23664,2.44032 L186.984,2.59968 C187.48848,2.63136 187.77504,2.72736 187.82496,3.55584 C187.92048,4.32096 188.06496,5.14944 188.08848,6.01008 L188.80848,6.01008 C188.80848,5.40288 188.80848,4.83072 188.83248,4.22544 C188.85696,3.10896 188.88048,1.99392 188.95344,0.81456 C186.62304,0.91008 184.34208,0.97392 182.0112,0.97392 C179.65824,0.97392 177.37632,0.91008 175.09632,0.81456 C175.16784,1.99392 175.19184,3.10896 175.21632,4.22544 C175.23888,4.83072 175.23888,5.40288 175.23888,6.01008 L175.95984,6.01008 C175.98432,5.14944 176.12784,4.32096 176.22432,3.55584 C176.27184,2.72736 176.5608,2.63136 177.06528,2.59968 L180.76464,2.44032 C180.83568,3.39648 180.83568,4.41552 180.86016,5.62704 L180.86016,19.27008"/>
    <g transform="translate(0 .48)">
      <mask id="sov-mom-logo-white-b" fill="#fff">
        <use xlink:href="#sov-mom-logo-white-a"/>
      </mask>
      <path fill="#FFF" fill-rule="nonzero" d="M27.24288,5.75328 L27.65664,5.8176 L27.87552,5.94144 L28.12704,5.9736 L28.56864,6.25728 L28.884,6.41472 L29.1048,6.4776 L29.48256,6.82416 L29.7672,6.89088 L29.89152,7.10832 L30.11472,7.17072 L30.20688,7.3944 L30.58656,7.51968 L31.1856,7.67616 L31.72224,7.86672 C31.75584,7.94448 31.79568,7.99248 31.81776,8.08848 L32.29008,8.0544 L32.5104,8.14992 C32.82,8.33952 32.87568,8.4552 32.98368,8.49696 L33.26832,8.52816 L33.55056,8.59104 L33.9624,8.84304 L34.43424,9.00144 L34.68672,9.2544 L34.97088,9.34848 L35.22288,9.4752 L35.79072,9.6312 L36.16992,9.91728 L36.67392,10.0752 L37.05264,10.20192 L37.30272,10.45344 L37.65168,10.83024 L37.87056,10.89504 L38.09376,10.92384 C38.18832,10.9848 38.26944,10.944 38.3424,10.99008 L38.56608,11.1144 L39.06912,11.36832 L39.28992,11.49408 L39.51168,11.68368 L39.92256,11.80848 C39.98688,11.87184 40.1016,11.88624 40.14336,11.93472 L40.488,12.06192 L40.96032,12.18816 C40.95696,12.0792 40.9416,11.89584 40.992,11.84064 C41.02368,11.71104 41.08608,11.70816 41.24592,11.712 L41.65392,11.904 L41.87424,11.99904 L42.2856,12.18816 C42.52128,12.41136 42.49296,12.49344 42.63456,12.53376 L42.9168,12.59712 L43.2336,12.59712 L43.45296,12.43872 L43.70784,12.3768 L44.08272,12.2208 L44.77632,12.02832 C44.84304,12.00912 45.05136,11.9376 45.156,11.96832 L45.43824,11.99904 L45.8496,12.12384 C46.1616,11.81232 46.59168,11.67024 46.63632,11.68368 C46.68912,11.73504 46.78176,11.76624 46.85808,11.74608 L47.30112,11.712 L47.7096,11.93472 C47.85216,12.05808 47.88336,12.05472 47.96352,12.06192 L48.24576,11.7768 C48.30048,11.76144 48.40224,11.6904 48.50016,11.712 L48.8136,11.74608 L49.06752,11.7768 C49.17792,11.80992 49.21248,11.8368 49.38336,11.84064 C49.17264,11.66208 49.16544,11.712 49.16256,11.712 L48.65664,11.52624 L48.1512,11.46048 L47.93232,11.36832 L47.61552,11.3352 L47.93232,11.14656 L48.27888,11.1792 L48.94128,11.30448 L49.25568,11.42928 L49.72992,11.49408 L50.13792,11.7768 L50.55024,11.7768 L50.8632,11.904 L51.08448,12.02832 L51.36912,12.12384 L51.6528,12.25008 C51.8256,12.40512 51.92448,12.39936 51.96768,12.59712 L52.4088,12.72336 L52.78656,12.88176 L53.00736,12.97584 L53.22864,13.06992 L53.44896,13.1952 L53.82864,13.51248 L54.1752,13.79424 L54.45888,13.88928 L54.90048,14.20608 C55.45728,14.33472 55.63392,14.39184 55.69056,14.616 C55.78944,14.63424 55.82976,14.66592 55.9392,14.67792 C56.0784,14.80992 56.08464,14.83104 56.09904,14.9016 C56.23824,14.9208 56.532,14.92656 56.63616,14.99424 L56.82336,15.21168 L57.0744,15.30912 L57.42096,15.46608 L57.64368,15.55872 L57.92592,15.71856 L58.17984,15.87744 L58.40112,16.03584 L58.74672,16.31904 L59.00064,16.44528 L59.21952,16.5408 C59.49216,16.76112 59.63664,16.66608 59.69424,16.88736 C60.07728,17.03232 60.24624,17.20032 60.48288,17.26512 L60.89232,17.58048 L61.23888,17.8008 L61.49184,17.95824 L61.87056,18.3696 L62.34192,18.65376 L62.68848,19.02912 L62.91024,19.12368 L63.28752,19.44288 L63.636,19.72512 L63.82368,20.07168 L64.04736,20.136 L64.26576,20.2608 C64.47312,20.51376 64.37232,20.62224 64.42512,20.70048 C64.56048,20.82528 64.5144,20.71536 64.64592,20.7648 L64.89552,20.85936 L65.11824,21.11136 C65.25744,21.34656 65.32464,21.46032 65.33904,21.64848 L65.7792,21.99168 L65.87328,22.21824 L66.09456,22.40736 L66.31536,22.62864 C66.53184,22.84704 66.66576,23.00832 66.69312,23.12976 C66.77904,23.23344 66.8304,23.27424 66.85248,23.3808 C66.47232,23.32704 66.46224,23.3328 66.44304,23.25792 C66.21168,23.1576 66.1104,23.20848 66.03216,23.16384 L65.7792,23.00688 L65.5296,22.81776 L65.4312,22.59312 L64.99056,22.18656 L64.70736,21.80736 L64.48704,21.61776 C64.4016,21.55584 64.30272,21.53376 64.23456,21.46032 C63.98064,21.17568 64.03248,21.14256 64.01424,21.08304 C63.89184,20.90688 63.8184,20.84448 63.7296,20.7984 C63.40368,20.58672 63.40368,20.55888 63.3816,20.54496 C63.1008,20.35728 63.09984,20.26992 63.00528,20.23008 L62.5944,20.10288 L62.40384,19.85136 C62.10768,19.56768 62.09568,19.57968 62.08656,19.57728 L62.02656,19.37616 C61.90416,19.37472 61.87056,19.36848 61.80528,19.31712 L61.49184,19.25232 C61.2216,19.06176 61.1952,19.16064 61.11408,19.12368 L60.89232,19.02912 L60.67104,18.93648 C60.5112,18.756 60.53856,18.7272 60.5112,18.71616 L60.19824,18.65376 L59.8512,18.56064 L59.56704,18.46416 L59.1888,18.24336 C59.07504,18.10176 59.15088,17.98848 58.90512,17.95824 C58.75296,18.04992 58.71024,18.03072 58.62144,17.98848 L58.02,17.54928 L57.80112,17.54928 C57.74112,17.49408 57.45552,17.48544 57.32688,17.48688 L57.04464,17.54928 C56.96736,17.31264 57.0408,17.19072 56.69808,17.20032 L56.35152,16.88736 L56.13024,16.76112 C56.00832,16.61808 55.93392,16.5648 55.8168,16.50624 L55.53168,16.476 L55.3104,16.31904 L54.93024,16.25424 L54.45888,16.22352 L53.8608,15.87744 C53.64864,15.80784 53.50944,15.93312 53.48208,15.94176 L53.19744,15.94176 C53.1264,15.96096 52.94208,16.04352 52.81776,16.00512 L52.56768,15.9072 L51.93504,15.87744 L51.4944,15.87744 L51.24336,15.84672 L51.02016,15.94176 L51.08448,16.22352 L50.832,16.25424 L50.55024,16.25424 C50.47536,16.19424 50.4288,16.19808 50.32896,16.1928 C50.29248,16.25424 50.22144,16.3392 50.20224,16.41168 C50.07744,16.68528 49.99776,16.81392 49.76064,16.82304 C49.54224,16.99056 49.43808,17.13408 49.34976,17.17152 L48.94128,17.42256 C48.61344,17.64528 48.62928,17.55216 48.62544,17.8008 C48.69984,17.87712 48.72048,18.14784 48.72048,18.30528 C48.35232,18.3768 48.28272,18.42432 48.27888,18.43152 C48.23904,18.69408 48.11376,18.68544 47.99424,18.68304 C47.93376,18.5952 47.80464,18.56976 47.6784,18.56064 L47.45808,18.528 L47.07936,18.43152 L46.48032,18.11664 L46.22736,18.08352 L45.8496,17.92752 L45.43824,17.736 L45.1872,17.51856 L44.96496,17.26512 C44.83152,17.16528 44.77968,17.14944 44.74752,17.10768 C44.63088,16.95408 44.60736,16.8912 44.42976,16.88736 L43.45296,16.76112 L43.2336,16.66608 L42.69648,16.476 L42.47568,16.2888 L42.19248,16.16016 L41.78112,15.75456 L41.53008,15.71856 L41.1192,15.55872 L40.89792,15.43536 L40.29888,15.2784 C40.00896,15.09456 39.7512,15.06576 39.69888,14.868 L39.03792,14.73984 C38.8896,14.67888 38.79696,14.67888 38.72208,14.616 L38.50272,14.42544 L37.87056,14.2368 L37.61904,14.07936 L37.20816,13.82784 L36.864,13.57728 L36.48384,13.44816 L36.04176,13.13424 L35.47392,13.0392 L35.09664,12.81936 L34.87632,12.75696 L34.52976,12.59712 L34.30896,12.43872 L33.8976,12.12384 L33.61584,12.02832 L33.29904,11.96832 C33.13968,11.8248 32.99424,11.81856 32.95248,11.65008 C32.832,11.62272 32.74656,11.53008 32.66928,11.46048 C32.38224,11.27616 32.33184,11.1408 32.3232,11.08464 C32.18256,11.08608 31.9704,11.10816 31.88112,11.05248 L31.59648,10.89504 C31.50768,10.78416 31.46112,10.75488 31.37568,10.73616 C31.27008,10.57776 31.31328,10.4928 31.12368,10.45344 L30.90192,10.26288 L30.6816,9.98112 L30.39696,9.6312 L30.20688,9.41328 L29.89152,9.03504 L29.64288,8.8776 L29.54688,8.56032 L29.29536,8.40144 C29.16288,8.2152 29.13456,8.14032 29.1048,8.11872 C28.94256,8.06112 28.80432,7.79424 28.78944,7.73952 C28.51296,7.5264 28.33152,7.52112 28.1904,7.51968 C28.16304,7.65984 28.04304,7.7928 27.93888,7.86672 L27.11952,7.86672 C27.03168,8.01168 27.10176,8.12736 27.11952,8.14992 L27.24288,8.4648 L26.8344,8.37024 L26.45568,8.30832 L26.77296,8.59104 L27.1488,8.8776 C26.9208,9.29376 26.65968,9.14304 26.424,9.12816 C26.3232,9.19248 26.22048,9.19248 26.04624,9.19056 C25.99632,9.288 25.98816,9.24768 25.98192,9.41328 C26.16336,9.55248 26.02176,9.7416 26.01312,9.98112 L25.85664,10.35696 C25.61616,10.45296 25.55664,10.48608 25.44816,10.54608 L25.16352,10.67424 C24.948,10.84608 24.90576,10.87344 24.81888,10.89504 C24.80112,10.97232 24.78768,11.00928 24.78576,11.1144 C24.85584,11.25888 24.81312,11.28816 24.75216,11.3352 C24.45792,11.52624 24.25248,11.54832 24.09024,11.55456 L23.86896,11.61936 L23.65008,11.46048 C23.57904,11.42256 23.46672,11.44416 23.39712,11.39952 C23.33424,11.66208 23.33952,11.61696 23.39712,11.68368 C23.47584,11.75136 23.43072,11.84928 23.46144,11.93472 C23.56656,12.1368 23.54304,12.09696 23.5248,12.12384 L23.3016,12.2208 C23.03136,12.39216 23.07024,12.30336 22.98816,12.408 C23.05056,12.70848 22.93008,12.80592 22.8624,12.88176 L22.73568,13.10112 C22.71456,13.13088 22.52352,13.24272 22.48128,13.25952 L22.1688,13.38576 C21.95952,13.54368 21.8592,13.5 21.79008,13.54272 L21.60048,13.76592 L21.15696,13.85856 C21.024,14.00112 20.86176,14.04 20.74848,14.04864 L20.43456,14.26992 L19.92624,14.30016 C19.82736,14.24112 19.74528,14.28864 19.6752,14.30016 C19.41648,14.61456 19.28736,14.4456 19.17072,14.616 C19.0776,14.72496 19.19088,14.81568 18.98208,14.868 L18.60384,15.15312 L18.41664,15.52992 C18.2472,15.66192 18.19872,15.6792 18.16416,15.71856 C18.05184,15.70992 17.93184,15.62352 17.8464,15.65904 C17.6568,15.78576 17.49552,15.66336 17.37456,15.78336 L17.40432,16.09872 L17.34192,16.31904 L16.83696,16.31904 L16.46016,16.60032 C16.1712,16.968 16.16208,16.97328 16.14528,17.04336 L15.5136,17.07648 C15.34896,17.17536 15.2784,17.2296 15.19824,17.26512 L15.41904,17.42256 C15.53712,17.51856 15.60048,17.52864 15.60912,17.70672 L15.38688,17.8008 C15.37344,17.71824 15.35568,17.66304 15.35424,17.54928 L15.13488,17.54928 L14.75664,17.70672 L14.53584,17.83536 C14.33568,17.952 14.2992,17.85408 14.2536,18.0216 C14.18208,18.1008 14.26224,18.21456 14.2848,18.30528 L14.41248,18.528 L13.968,18.49632 L13.716,18.49632 C13.39104,18.648 13.39488,18.73968 13.36896,18.7776 C13.22832,18.89568 13.19616,18.93888 13.056,18.9696 C12.89808,19.1184 12.9336,19.12032 12.89664,19.18848 L12.51744,19.44288 C12.27792,19.584 12.19824,19.53696 12.04368,19.53696 L12.14064,19.78752 L11.76144,20.10288 C11.40672,20.35008 11.34816,20.38032 11.22528,20.38752 C11.14512,20.2824 11.12736,20.24304 11.004,20.23008 L10.59408,20.48304 L10.27872,20.64144 L10.24752,20.95392 L10.05696,21.17568 C9.9408,21.26496 9.888,21.26112 9.86736,21.3936 C10.0296,21.5712 10.0128,21.60864 9.99504,21.7128 L9.77424,21.74256 C9.75984,21.6672 9.7464,21.62688 9.74256,21.52272 C9.62976,21.47904 9.4296,21.48864 9.2688,21.49152 C9.20112,21.60864 9.07776,21.7128 8.92416,21.74256 C8.65392,21.97632 8.55888,22.12896 8.54688,22.15344 C8.35344,22.39344 8.30112,22.42464 8.22864,22.40736 C8.14752,22.3824 8.00448,22.24272 7.88208,22.28016 L7.6632,22.40736 L7.37808,22.37376 L7.37808,22.59312 C7.32576,22.61088 7.068,22.66368 7.03152,22.65792 L6.81024,22.68768 L6.3384,22.752 L6.11712,22.752 L5.95824,22.97568 C5.75904,23.06592 5.67024,23.02416 5.61216,23.06928 C5.44224,23.25168 5.29248,23.12304 5.17248,23.16384 L4.50672,23.22432 L4.2552,23.22432 L3.8784,23.25792 C3.66288,23.32464 3.5496,23.35296 3.37152,23.32224 C3.30192,23.18208 3.22368,23.08032 3.15168,23.12976 L2.86848,23.00688 L2.4264,22.97568 C2.27376,22.80192 2.32176,22.72224 2.26896,22.68768 L1.89024,22.72224 L1.60704,22.50048 C1.57632,22.40016 1.43088,22.35312 1.38768,22.3416 L0.8496,22.40736 L0.6288,22.24704 L0.40848,22.0896 C0.14448,21.8952 0.06096,22.03344 0,21.84048 C0.0864,21.55152 0.11328,21.68256 0.28224,21.61776 L0.66192,21.49152 L0.8184,21.20448 L1.1016,20.82912 L1.51296,20.51232 C1.56432,20.47344 1.56816,20.34864 1.60704,20.29296 L1.73424,20.07168 C1.94304,19.9392 1.9416,19.82688 2.11056,19.78752 L2.55264,19.40928 L2.83728,19.02912 C2.9904,18.89952 3.084,18.804 3.1848,18.74736 L3.75168,18.56064 C3.7128,18.35856 3.69936,18.31824 3.68736,18.21216 L4.06608,17.95824 C4.21968,17.94288 4.29456,17.95632 4.44624,17.92752 L4.69728,17.54928 C4.94976,17.34432 4.90896,17.41776 4.98144,17.32704 L5.3928,16.88736 C5.45808,16.74288 5.46432,16.73856 5.48592,16.66608 L6.05376,16.72896 L6.08352,16.2888 L6.5592,15.94176 L6.74688,15.65904 L6.96768,15.55872 C7.13328,15.40128 7.27104,15.4056 7.4424,15.4056 L7.4424,15.15312 L7.78896,14.96352 C7.95408,14.78592 7.97328,14.74848 8.10336,14.73984 C8.15184,14.58864 8.24784,14.50128 8.292,14.48976 L8.60784,14.45856 L8.5752,14.20608 C8.69424,14.18064 8.75568,14.11632 8.82912,14.04864 L9.17568,13.85856 L9.492,13.51248 L9.64848,13.28976 C9.77616,13.07328 9.85632,13.13664 9.90096,12.97584 L10.3752,12.88176 C10.40736,12.74592 10.4952,12.74832 10.53168,12.59712 L10.75248,12.50208 C11.0808,12.37008 11.17392,12.3792 11.2872,12.3768 C11.29056,12.13824 11.36736,12.22416 11.41488,12.06192 C11.63904,11.93616 11.75328,11.9544 11.7936,11.904 L12.01392,11.61936 L12.26496,11.49408 L12.48576,11.1792 L12.92832,10.99008 C13.25232,10.58496 13.20384,10.65504 13.30464,10.6104 L13.8096,10.45344 L14.06352,9.98112 C14.20272,9.98112 14.27616,9.97872 14.34816,9.91728 L15.168,9.5064 L15.41904,9.34848 L15.79632,9.19056 C15.95328,8.98176 15.91584,8.94096 15.95568,8.90736 L16.17648,8.84304 C16.40016,8.75712 16.50192,8.68944 16.61664,8.72016 C16.74096,8.7864 16.80912,8.70528 16.8696,8.74848 C17.06112,8.91264 17.08464,8.86848 17.08848,9.03504 L16.71312,9.00144 L16.61664,9.2856 C16.56672,9.34416 16.49952,9.36816 16.3944,9.37968 L16.0488,9.5064 C15.78768,9.75744 15.69936,9.7176 15.64032,9.75984 L15.38688,10.04304 L15.168,10.20192 C15.06336,10.32816 15.0144,10.37472 14.8848,10.38912 C14.72352,10.29744 14.66256,10.29744 14.56704,10.29504 L14.09376,10.45344 L14.09376,10.67424 C13.95888,10.7448 13.85328,10.8552 13.68576,10.89504 L13.68576,11.1792 C13.62816,11.33952 13.42848,11.39616 13.17984,11.36832 L12.83328,11.80848 C12.72096,11.83152 12.66144,11.89248 12.58368,11.93472 L12.23472,11.96832 L12.1704,12.2208 C12.09744,12.38832 11.93376,12.3552 11.72928,12.34608 C11.58864,12.52128 11.59632,12.52512 11.60256,12.59712 C11.26896,13.0152 11.0448,13.08 10.94064,13.10112 L10.87872,13.38576 C10.56528,13.52832 10.4928,13.45344 10.40592,13.54272 L10.05696,13.82784 L9.90096,14.04864 C9.70416,14.20368 9.6576,14.27328 9.55296,14.30016 L9.83664,14.39568 C10.0608,14.3856 10.11504,14.34672 10.1856,14.33088 L10.43424,14.04864 L10.65744,13.95408 L11.256,13.92144 C11.13024,13.72704 11.06448,13.65312 11.06832,13.44816 L11.41488,13.35552 C11.75328,13.008 11.70048,12.9792 11.91984,12.97584 C11.95584,13.0104 12.132,13.03248 12.2016,13.0392 L12.23472,12.75696 C12.34128,12.68736 12.4944,12.75792 12.61152,12.72336 C12.76608,12.67728 12.81504,12.59952 13.0224,12.59712 C12.984,12.45408 12.90384,12.48192 12.89664,12.28272 L13.3368,11.93472 L13.78032,11.58816 L14.09376,11.58816 C14.14704,11.38608 14.21712,11.48832 14.37888,11.42928 C14.53584,11.25456 14.5512,11.19456 14.56704,11.1144 C14.64192,11.06688 14.73456,10.87728 14.75664,10.86528 L15.19824,10.67424 C15.28464,10.51728 15.35424,10.488 15.38688,10.45344 L15.67104,10.45344 C15.86352,10.25376 15.91584,10.23504 15.95568,10.20192 C16.22688,10.04208 16.25664,10.00656 16.36704,9.98112 C16.40448,9.8328 16.63392,9.72432 16.8696,9.79056 C17.16432,9.72432 17.17104,9.66816 17.37456,9.66384 L17.34192,9.41328 L17.56272,9.3192 L17.72352,9.00144 L17.94144,8.97024 L18.22464,8.84304 C18.42192,8.64624 18.53904,8.67936 18.60384,8.62464 C18.94752,8.47152 18.94992,8.31312 19.26624,8.30832 L19.5816,8.0544 L19.8648,7.99248 L20.08608,7.836 L20.5272,7.67616 L20.87376,7.3944 L21.4752,7.20672 L21.72576,7.14144 L22.57632,7.07712 L22.57632,6.85776 C22.71456,6.7776 22.77648,6.64656 22.98816,6.63696 L22.67088,6.51264 L21.72576,6.60672 L21.3792,6.89088 C21.2256,7.07712 20.97936,7.1256 20.8128,7.17072 C20.6016,7.23216 20.45376,7.10352 20.27472,7.17072 L20.05296,7.26624 L19.6752,7.67616 C19.56096,7.73952 19.53648,7.6416 19.392,7.67616 L18.98208,7.6464 C18.9696,7.78656 18.87696,8.06832 18.79296,8.11872 L18.50832,8.18304 C18.34848,8.33088 18.27264,8.36832 18.09984,8.37024 L17.72352,8.62464 L17.49984,8.65536 L17.06112,8.62464 C16.99872,8.43168 17.04192,8.46 17.06112,8.30832 C17.31888,8.2104 17.44992,8.10336 17.59488,8.0544 L17.8152,8.0544 L18.03648,8.244 C18.2088,8.16768 18.2688,8.12544 18.35184,8.08848 C18.3288,8.02848 18.3216,7.96416 18.3216,7.86672 C18.49536,7.68432 18.52656,7.64256 18.57072,7.58448 L18.7632,7.26624 C18.89856,7.19904 19.08144,7.17984 19.17072,7.20672 L19.73952,7.07712 L20.02368,6.91968 L20.24496,6.75984 L20.65248,6.54192 L21.09504,6.38544 C21.25008,6.2712 21.30384,6.17616 21.53568,6.16464 L21.91488,6.00576 C22.18512,5.84496 22.41456,5.99856 22.48128,6.03792 L22.8624,5.8176 L23.08272,5.59632 L23.36496,5.59632 L23.77584,5.50224 C23.89872,5.42016 23.97216,5.38848 24.05952,5.31264 C24.19488,5.20032 24.29664,5.30208 24.3432,5.31264 L24.78576,5.24832 L25.0056,5.15328 L25.60416,5.12496 C25.87536,5.23728 25.9368,5.18016 25.98192,5.15328 C26.1264,5.06016 26.3736,5.16816 26.45568,5.18544 C26.59008,5.24736 26.68992,5.24208 26.89872,5.24832 C26.98272,5.36976 27.13488,5.3088 27.18096,5.46864 L27.24288,5.75328 Z M46.7016,10.99008 L47.016,11.30448 C46.96608,11.49264 46.7184,11.46432 46.54464,11.46048 C46.45584,11.30208 46.524,11.20656 46.54464,11.1144 L46.7016,10.99008 Z M45.43824,11.1144 C45.57312,11.1144 45.63504,11.14224 45.72384,11.1792 L45.8808,11.42928 C45.76032,11.48832 45.61824,11.45472 45.53616,11.49408 C45.33024,11.64096 45.07296,11.57664 45.02976,11.49408 C45.144,11.3304 45.37728,11.28576 45.40848,11.23968 L45.43824,11.1144 Z M44.59008,11.23968 L44.87088,11.52624 C44.78304,11.65728 44.71056,11.6784 44.59008,11.68368 C44.53632,11.5632 44.62512,11.45472 44.61984,11.39952 L44.59008,11.23968 Z M22.46976,12.72336 C22.39488,12.71664 22.32576,12.68736 22.26096,12.75696 C22.35552,12.83904 22.27008,12.84576 22.46976,12.84912 L22.46976,12.72336 Z M12.89664,13.98576 L13.14672,14.2368 L13.40112,14.20608 L13.17984,14.04864 C13.03584,13.91904 12.9504,13.97184 12.89664,13.98576 Z M8.95392,14.64576 C8.88192,14.82288 8.90112,14.868 8.85984,14.9016 L8.3856,15.08832 L8.13552,15.4056 C8.07408,15.57072 8.01312,15.65424 7.88208,15.68784 C7.94016,15.876 7.93344,15.88752 8.00832,15.9072 L8.2608,15.78336 L8.60784,15.49968 C8.94288,15.12096 8.9592,15.1056 9.01872,15.05904 L9.2376,14.92992 C9.42192,14.76336 9.52848,14.75904 9.55296,14.52336 L9.33168,14.55408 L9.11232,14.58528 L8.95392,14.64576 Z M52.47312,15.15312 L52.4088,14.92992 L52.34688,15.18432 L52.47312,15.15312 Z M51.7776,15.21168 C51.70656,15.3216 51.61056,15.29856 51.58992,15.46608 C51.73056,15.54912 51.68448,15.59568 51.93504,15.59472 L52.18752,15.52992 L52.84992,15.65904 L52.6296,15.43536 L52.37856,15.4056 L52.12416,15.30912 L51.7776,15.21168 Z M6.81024,16.88736 C6.86688,16.69104 7.06224,16.78944 7.09584,16.50624 C6.63888,16.70064 6.7344,16.79376 6.68256,16.88736 C6.56016,16.96944 6.4368,16.93872 6.3696,16.9824 L5.8632,17.32704 C5.64144,17.42928 5.43552,17.61072 5.42112,17.92752 L5.7072,17.92752 C6.0312,17.6784 6.11232,17.68368 6.14784,17.64192 L6.6528,17.07648 L6.81024,16.88736 Z M42.69648,1.812 L42.09744,1.90656 L41.84592,1.96848 L41.08752,2.06256 L41.02416,2.34864 C40.85904,2.47728 40.80672,2.49264 40.77216,2.53872 C40.66848,2.53872 40.63008,2.55168 40.55136,2.56752 C40.54224,2.79984 40.44336,2.74944 40.3944,2.9136 C40.25472,2.94624 40.22016,2.976 40.01664,2.9784 C39.9744,3.0576 39.95376,3.0888 39.95232,3.22896 C39.876,3.24384 39.81168,3.276 39.69888,3.26064 L39.38592,3.4824 L39.28992,3.92496 L39.16368,4.20912 C39.07632,4.38576 39.18384,4.524 39.22848,4.61808 L39.2592,4.83888 L39.60336,5.15328 C39.804,5.21088 39.80064,5.30544 39.82656,5.3424 L40.07904,5.46864 L40.52064,5.65872 L40.89792,5.75328 L41.59248,5.9112 L41.97216,5.9112 L42.19248,5.94144 L42.50832,5.9736 L42.8544,5.87856 L43.29648,5.78448 L43.548,5.59632 L43.86432,5.50224 C44.0952,5.4072 44.1432,5.33616 44.24208,5.31264 L44.39856,4.96416 C44.6472,4.8696 44.8248,4.82112 44.9352,4.7424 C45.08496,4.61568 45.12192,4.63824 45.1872,4.61808 C45.25872,4.43568 45.31296,4.13136 45.43824,4.0488 L45.62976,3.8304 C45.58272,3.73584 45.5616,3.56016 45.5976,3.4824 C45.62496,3.42768 45.73968,3.42816 45.69312,3.26064 L45.62976,2.94672 C45.39168,2.77104 45.50496,2.74032 45.43824,2.6304 L45.21888,2.4432 L44.74752,2.25264 L44.49408,2.09376 L44.27328,2.03136 L43.92912,2.00064 L42.75792,1.87296 L42.69648,1.812 Z M46.85808,1.27392 C46.92384,1.29168 47.12064,1.39632 47.14128,1.43136 L47.26896,1.77888 L47.39616,2.03136 L47.61552,2.1888 L47.77344,2.47152 L47.90112,2.69376 L47.96352,3.22896 L47.90112,3.73584 L47.90112,4.02048 C47.94144,4.07088 47.85216,4.31808 47.8368,4.39824 C47.6904,4.41024 47.62032,4.46688 47.55216,4.55472 L47.39616,4.83888 L47.0472,4.99344 L46.7328,5.15328 L46.60704,5.43792 C46.53024,5.45184 46.4208,5.48016 46.38624,5.532 L46.19568,5.78448 L45.8184,6.10272 C45.59136,6.17424 45.50496,6.27216 45.34656,6.32064 C45.16848,6.37536 44.92512,6.29664 44.77632,6.38544 L44.55792,6.63696 L44.304,6.9528 L43.95744,6.98304 L43.70784,6.9528 L43.35888,7.07712 C43.25952,7.17984 43.19664,7.14288 43.1064,7.17072 L42.66528,7.20672 L41.93904,7.20672 L41.53008,7.07712 L40.89792,7.01376 L40.67808,6.85776 L40.4256,6.73104 L40.2048,6.51264 L39.95232,6.35136 C39.86448,6.2712 39.77568,6.19536 39.63696,6.16464 C39.60096,6.02256 39.5184,6.05328 39.48,5.9112 C39.38256,5.89104 39.21024,5.80464 39.13152,5.75328 L38.88288,5.50224 L38.78688,5.15328 L38.72208,4.93296 L38.81712,4.7136 L38.69136,4.42896 L38.72208,4.02048 L38.6616,3.67008 L38.75568,3.32496 C38.95248,3.07488 39.10944,3.04848 39.13152,3.01008 L39.22848,2.72592 C39.2784,2.60496 39.27168,2.51328 39.41664,2.47152 L39.66816,2.31504 C39.91008,2.00784 39.96912,1.91184 40.10976,1.87296 C40.25472,1.67232 40.40112,1.63296 40.4256,1.43136 L40.74096,1.33872 L41.1192,1.08432 L41.37168,0.73824 L41.65392,0.70512 L41.97216,0.5496 L42.2232,0.3912 C42.47568,0.2496 42.59472,0.34512 42.69648,0.29664 C42.79968,0.17904 43.17744,0.13872 43.26336,0.17136 C43.45632,0.3696 43.53648,0.36288 43.57968,0.3912 L43.80096,0.48672 C44.06256,0.4056 44.07648,0.46128 44.11632,0.45552 L44.42976,0.42432 L44.87088,0.3912 L45.34656,0.3912 L45.75504,0.45552 L45.97632,0.5496 L46.25856,0.70512 L46.63632,1.02528 C46.79184,1.07856 46.8336,1.14864 46.85808,1.27392 L46.85808,1.27392 Z" mask="url(#sov-mom-logo-white-b)"/>
    </g>
  </g>
</svg>
